<svg id="visual" viewBox="0 0 900 600" width="900" height="600" xmlns="http://www.w3.org/2000/svg" xmlns:xlink="http://www.w3.org/1999/xlink" version="1.1"><path d="M0 13L18.8 21C37.7 29 75.3 45 112.8 46C150.3 47 187.7 33 225.2 30C262.7 27 300.3 35 337.8 43C375.3 51 412.7 59 450.2 57C487.7 55 525.3 43 562.8 35C600.3 27 637.7 23 675.2 22C712.7 21 750.3 23 787.8 25C825.3 27 862.7 29 881.3 30L900 31L900 0L881.3 0C862.7 0 825.3 0 787.8 0C750.3 0 712.7 0 675.2 0C637.7 0 600.3 0 562.8 0C525.3 0 487.7 0 450.2 0C412.7 0 375.3 0 337.8 0C300.3 0 262.7 0 225.2 0C187.7 0 150.3 0 112.8 0C75.3 0 37.7 0 18.8 0L0 0Z" fill="#f5f5f5"></path><path d="M0 55L18.8 69C37.7 83 75.3 111 112.8 110C150.3 109 187.7 79 225.2 72C262.7 65 300.3 81 337.8 98C375.3 115 412.7 133 450.2 126C487.7 119 525.3 87 562.8 76C600.3 65 637.7 75 675.2 86C712.7 97 750.3 109 787.8 107C825.3 105 862.7 89 881.3 81L900 73L900 29L881.3 28C862.7 27 825.3 25 787.8 23C750.3 21 712.7 19 675.2 20C637.7 21 600.3 25 562.8 33C525.3 41 487.7 53 450.2 55C412.7 57 375.3 49 337.8 41C300.3 33 262.7 25 225.2 28C187.7 31 150.3 45 112.8 44C75.3 43 37.7 27 18.8 19L0 11Z" fill="#f5f5f5"></path><path d="M0 91L18.8 107C37.7 123 75.3 155 112.8 161C150.3 167 187.7 147 225.2 136C262.7 125 300.3 123 337.8 133C375.3 143 412.7 165 450.2 165C487.7 165 525.3 143 562.8 133C600.3 123 637.7 125 675.2 140C712.7 155 750.3 183 787.8 187C825.3 191 862.7 171 881.3 161L900 151L900 71L881.3 79C862.7 87 825.3 103 787.8 105C750.3 107 712.7 95 675.2 84C637.7 73 600.3 63 562.8 74C525.3 85 487.7 117 450.2 124C412.7 131 375.3 113 337.8 96C300.3 79 262.7 63 225.2 70C187.7 77 150.3 107 112.8 108C75.3 109 37.7 81 18.8 67L0 53Z" fill="#e9e9e9"></path><path d="M0 163L18.8 174C37.7 185 75.3 207 112.8 205C150.3 203 187.7 177 225.2 168C262.7 159 300.3 167 337.8 182C375.3 197 412.7 219 450.2 220C487.7 221 525.3 201 562.8 187C600.3 173 637.7 165 675.2 181C712.7 197 750.3 237 787.8 241C825.3 245 862.7 213 881.3 197L900 181L900 149L881.3 159C862.7 169 825.3 189 787.8 185C750.3 181 712.7 153 675.2 138C637.7 123 600.3 121 562.8 131C525.3 141 487.7 163 450.2 163C412.7 163 375.3 141 337.8 131C300.3 121 262.7 123 225.2 134C187.7 145 150.3 165 112.8 159C75.3 153 37.7 121 18.8 105L0 89Z" fill="#f5f5f5"></path><path d="M0 379L18.8 363C37.7 347 75.3 315 112.8 309C150.3 303 187.7 323 225.2 340C262.7 357 300.3 371 337.8 385C375.3 399 412.7 413 450.2 420C487.7 427 525.3 427 562.8 423C600.3 419 637.7 411 675.2 417C712.7 423 750.3 443 787.8 441C825.3 439 862.7 415 881.3 403L900 391L900 179L881.3 195C862.7 211 825.3 243 787.8 239C750.3 235 712.7 195 675.2 179C637.7 163 600.3 171 562.8 185C525.3 199 487.7 219 450.2 218C412.7 217 375.3 195 337.8 180C300.3 165 262.7 157 225.2 166C187.7 175 150.3 201 112.8 203C75.3 205 37.7 183 18.8 172L0 161Z" fill="#f5f5f5"></path><path d="M0 403L18.8 395C37.7 387 75.3 371 112.8 388C150.3 405 187.7 455 225.2 469C262.7 483 300.3 461 337.8 459C375.3 457 412.7 475 450.2 480C487.7 485 525.3 477 562.8 475C600.3 473 637.7 477 675.2 487C712.7 497 750.3 513 787.8 521C825.3 529 862.7 529 881.3 529L900 529L900 389L881.3 401C862.7 413 825.3 437 787.8 439C750.3 441 712.7 421 675.2 415C637.7 409 600.3 417 562.8 421C525.3 425 487.7 425 450.2 418C412.7 411 375.3 397 337.8 383C300.3 369 262.7 355 225.2 338C187.7 321 150.3 301 112.8 307C75.3 313 37.7 345 18.8 361L0 377Z" fill="#d4d4d4"></path><path d="M0 559L18.8 558C37.7 557 75.3 555 112.8 558C150.3 561 187.7 569 225.2 572C262.7 575 300.3 573 337.8 566C375.3 559 412.7 547 450.2 541C487.7 535 525.3 535 562.8 538C600.3 541 637.7 547 675.2 552C712.7 557 750.3 561 787.8 563C825.3 565 862.7 565 881.3 565L900 565L900 527L881.3 527C862.7 527 825.3 527 787.8 519C750.3 511 712.7 495 675.2 485C637.7 475 600.3 471 562.8 473C525.3 475 487.7 483 450.2 478C412.7 473 375.3 455 337.8 457C300.3 459 262.7 481 225.2 467C187.7 453 150.3 403 112.8 386C75.3 369 37.7 385 18.8 393L0 401Z" fill="#f5f5f5"></path><path d="M0 601L18.8 601C37.7 601 75.3 601 112.8 601C150.3 601 187.7 601 225.2 601C262.7 601 300.3 601 337.8 601C375.3 601 412.7 601 450.2 601C487.7 601 525.3 601 562.8 601C600.3 601 637.7 601 675.2 601C712.7 601 750.3 601 787.8 601C825.3 601 862.7 601 881.3 601L900 601L900 563L881.3 563C862.7 563 825.3 563 787.8 561C750.3 559 712.7 555 675.2 550C637.7 545 600.3 539 562.8 536C525.3 533 487.7 533 450.2 539C412.7 545 375.3 557 337.8 564C300.3 571 262.7 573 225.2 570C187.7 567 150.3 559 112.8 556C75.3 553 37.7 555 18.8 556L0 557Z" fill="#d3d3d3"></path></svg>